# xmcd
#
# Track frame offsets:
#	150
#	16303
#	38755
#	51418
#	68849
#	84478
#	104286
#	122144
#	142235
#	160803
#	186632
#	202730
#
# Disc length: 2869 seconds
#
# Revision: 1
# Processed by: cddbd v1.5.2PL0 Copyright (c) Steve Scherf et al.
# Submitted via: EasyCDDAExtractor 15.3.0.1
#
DISCID=a90b330c
DTITLE=Lissette - Soles
DYEAR=2012
DGENRE=Latin
TTITLE0=Tarde Gris
TTITLE1=Soles
TTITLE2=Donde Empezar
TTITLE3=Tu, La Noche Y Yo
TTITLE4=Dos
TTITLE5=Habaname
TTITLE6=Me Faltaras
TTITLE7=Y Pienso En Ti
TTITLE8=Si Supieras
TTITLE9=Como Una Campana
TTITLE10=Si Hay Amor, Volvera
TTITLE11=Where Do You Start (Cancion Extra)
EXTD=
EXTT0=
EXTT1=
EXTT2=
EXTT3=
EXTT4=
EXTT5=
EXTT6=
EXTT7=
EXTT8=
EXTT9=
EXTT10=
EXTT11=
PLAYORDER=
